<svg width="426" height="291" viewBox="0 0 426 291" fill="none" xmlns="http://www.w3.org/2000/svg">
<path d="M91.8582 99.02C68.5367 124.251 54.7342 128.06 54.7342 128.06C54.7342 128.06 67.5848 136.153 89.0025 130.916C86.6228 135.201 84.719 139.962 82.8152 144.722C81.8633 147.103 80.9114 149.483 79.9595 151.387C44.7392 150.911 15.2304 132.82 0 121.395C25.7013 132.82 62.8253 97.591 92.3342 74.264C156.587 24.753 203.706 63.315 203.706 63.315C179.909 48.5564 134.218 52.3649 91.8582 99.02Z" fill="#53B688"/>
<path d="M132.314 36.6559C106.137 40.4644 96.1417 36.1798 96.1417 36.1798C96.1417 36.1798 99.9493 47.1294 115.18 54.2704C111.848 55.6986 108.516 57.6029 104.709 59.5072C103.281 60.459 101.377 61.411 99.9493 62.364C79.0075 45.2251 69.9645 20.4696 66.6328 6.1875C76.6277 25.2302 115.656 21.8978 144.213 22.3738C206.086 23.326 216.081 69.029 216.081 69.029C209.418 49.0337 179.909 29.5148 132.314 36.6559Z" fill="#53B688"/>
<path d="M88.0507 146.628C72.3443 187.094 56.638 244.223 24.2734 248.031C46.6431 250.412 87.5747 250.412 123.271 228.989C124.223 218.515 124.699 207.089 125.175 196.14C104.709 221.847 82.3393 221.848 82.3393 221.848C82.3393 221.848 93.7621 209.946 101.853 171.384C116.608 99.974 159.443 69.029 191.808 69.981C192.284 69.981 122.319 59.5079 88.0507 146.628Z" fill="#53B688"/>
<path d="M132.314 174.716C129.934 218.039 132.79 277.071 103.281 290.877C127.555 285.64 171.818 270.882 198.947 232.321C233.215 183.286 192.284 127.11 199.899 86.1681C193.236 99.0221 187.048 121.397 188.952 159.482C192.284 234.701 149.924 248.031 149.924 248.031C149.924 248.031 157.064 233.273 152.78 193.759C144.213 121.397 175.626 78.5511 206.562 69.0291C207.038 69.5051 137.55 81.4071 132.314 174.716Z" fill="#53B688"/>
<path d="M333.641 191.85C356.963 166.618 370.765 162.81 370.765 162.81C370.765 162.81 357.914 154.717 336.497 159.953C338.877 155.669 340.78 150.908 342.684 146.147C343.636 143.767 344.588 141.387 345.54 139.482C380.284 139.958 409.317 157.573 425.023 168.999C399.322 158.525 362.674 193.278 333.165 216.129C268.912 265.641 221.793 227.079 221.793 227.079C245.59 242.313 291.282 238.505 333.641 191.85Z" fill="#53B688"/>
<path d="M293.185 254.218C319.362 250.41 329.357 254.694 329.357 254.694C329.357 254.694 325.55 243.745 310.319 236.604C313.651 235.176 316.983 233.271 320.79 231.367C322.218 230.415 324.122 229.463 325.55 228.511C346.491 245.649 355.534 270.405 358.866 284.687C348.871 265.644 309.843 268.976 281.286 268.5C219.413 267.548 209.418 221.846 209.418 221.846C216.081 241.841 245.114 261.359 293.185 254.218Z" fill="#53B688"/>
<path d="M337.447 144.249C353.153 103.783 368.86 46.6546 401.224 42.8461C378.854 40.4657 337.923 40.4657 302.227 61.889C301.275 72.362 300.799 83.788 300.323 94.738C320.789 69.03 343.158 69.03 343.158 69.03C343.158 69.03 331.735 80.932 323.644 119.493C308.89 190.903 266.054 221.848 233.69 220.896C233.214 220.896 303.179 231.369 337.447 144.249Z" fill="#53B688"/>
<path d="M293.185 116.161C295.565 72.838 292.709 13.806 322.218 0C297.945 5.2368 253.681 19.9949 226.552 58.5564C192.284 107.591 233.215 163.768 225.6 204.709C232.264 191.856 238.451 169.48 236.547 131.395C233.215 56.1761 275.575 42.8462 275.575 42.8462C275.575 42.8462 268.436 57.6043 272.719 97.118C281.286 169.48 249.874 212.326 218.937 221.848C218.461 221.372 287.95 209.47 293.185 116.161Z" fill="#53B688"/>
</svg>
