<svg width="1308" height="291" viewBox="0 0 1308 291" fill="none" xmlns="http://www.w3.org/2000/svg">
<path d="M91.8582 99.02C68.5367 124.251 54.7342 128.06 54.7342 128.06C54.7342 128.06 67.5848 136.153 89.0025 130.916C86.6228 135.201 84.719 139.962 82.8152 144.722C81.8633 147.103 80.9114 149.483 79.9595 151.387C44.7392 150.911 15.2304 132.82 0 121.395C25.7013 132.82 62.8253 97.591 92.3342 74.264C156.587 24.753 203.706 63.315 203.706 63.315C179.909 48.5564 134.218 52.3649 91.8582 99.02Z" fill="#53B688"/>
<path d="M132.314 36.6559C106.137 40.4644 96.1417 36.1798 96.1417 36.1798C96.1417 36.1798 99.9493 47.1294 115.18 54.2704C111.848 55.6986 108.516 57.6029 104.709 59.5072C103.281 60.459 101.377 61.411 99.9493 62.364C79.0075 45.2251 69.9645 20.4696 66.6328 6.1875C76.6277 25.2302 115.656 21.8978 144.213 22.3738C206.086 23.326 216.081 69.029 216.081 69.029C209.418 49.0337 179.909 29.5148 132.314 36.6559Z" fill="#53B688"/>
<path d="M88.0507 146.628C72.3443 187.094 56.638 244.223 24.2734 248.031C46.6431 250.412 87.5747 250.412 123.271 228.989C124.223 218.515 124.699 207.089 125.175 196.14C104.709 221.847 82.3393 221.848 82.3393 221.848C82.3393 221.848 93.7621 209.946 101.853 171.384C116.608 99.974 159.443 69.029 191.808 69.981C192.284 69.981 122.319 59.5079 88.0507 146.628Z" fill="#53B688"/>
<path d="M132.314 174.716C129.934 218.039 132.79 277.071 103.281 290.877C127.555 285.64 171.818 270.882 198.947 232.321C233.215 183.286 192.284 127.11 199.899 86.1681C193.236 99.0221 187.048 121.397 188.952 159.482C192.284 234.701 149.924 248.031 149.924 248.031C149.924 248.031 157.064 233.273 152.78 193.759C144.213 121.397 175.626 78.5511 206.562 69.0291C207.038 69.5051 137.55 81.4071 132.314 174.716Z" fill="#53B688"/>
<path d="M333.641 191.85C356.963 166.618 370.765 162.81 370.765 162.81C370.765 162.81 357.914 154.717 336.497 159.953C338.877 155.669 340.78 150.908 342.684 146.147C343.636 143.767 344.588 141.387 345.54 139.482C380.284 139.958 409.317 157.573 425.023 168.999C399.322 158.525 362.674 193.278 333.165 216.129C268.912 265.641 221.793 227.079 221.793 227.079C245.59 242.313 291.282 238.505 333.641 191.85Z" fill="#53B688"/>
<path d="M293.185 254.218C319.362 250.41 329.357 254.694 329.357 254.694C329.357 254.694 325.55 243.745 310.319 236.604C313.651 235.176 316.983 233.271 320.79 231.367C322.218 230.415 324.122 229.463 325.55 228.511C346.491 245.649 355.534 270.405 358.866 284.687C348.871 265.644 309.843 268.976 281.286 268.5C219.413 267.548 209.418 221.846 209.418 221.846C216.081 241.841 245.114 261.359 293.185 254.218Z" fill="#53B688"/>
<path d="M337.447 144.249C353.153 103.783 368.86 46.6546 401.224 42.8461C378.854 40.4657 337.923 40.4657 302.227 61.889C301.275 72.362 300.799 83.788 300.323 94.738C320.789 69.03 343.158 69.03 343.158 69.03C343.158 69.03 331.735 80.932 323.644 119.493C308.89 190.903 266.054 221.848 233.69 220.896C233.214 220.896 303.179 231.369 337.447 144.249Z" fill="#53B688"/>
<path d="M293.185 116.161C295.565 72.838 292.709 13.806 322.218 0C297.945 5.2368 253.681 19.9949 226.552 58.5564C192.284 107.591 233.215 163.768 225.6 204.709C232.264 191.856 238.451 169.48 236.547 131.395C233.215 56.1761 275.575 42.8462 275.575 42.8462C275.575 42.8462 268.436 57.6043 272.719 97.118C281.286 169.48 249.874 212.326 218.937 221.848C218.461 221.372 287.95 209.47 293.185 116.161Z" fill="#53B688"/>
<path d="M452.4 127C455.333 132.2 458.533 136.733 462 140.6C465.6 144.467 469.533 147.467 473.8 149.6C478.067 151.733 482.667 152.8 487.6 152.8C493.333 152.8 498 151.333 501.6 148.4C505.2 145.467 507 141.467 507 136.4C507 132 505.867 128.467 503.6 125.8C501.467 123.133 498.2 120.8 493.8 118.8C489.533 116.667 484.267 114.4 478 112C474.667 110.8 470.8 109.2 466.4 107.2C462.133 105.067 458.067 102.4 454.2 99.2C450.333 95.867 447.133 91.867 444.6 87.2C442.067 82.4 440.8 76.667 440.8 70C440.8 62 442.8 55.1333 446.8 49.4C450.933 43.5333 456.467 39.0667 463.4 36C470.467 32.8 478.333 31.2 487 31.2C495.933 31.2 503.6 32.7333 510 35.8C516.533 38.7333 521.933 42.5333 526.2 47.2C530.6 51.7333 534 56.4667 536.4 61.4L514 73.8C512.133 70.467 509.867 67.467 507.2 64.8C504.667 62 501.733 59.8 498.4 58.2C495.067 56.4667 491.267 55.6 487 55.6C481.4 55.6 477.2 56.9333 474.4 59.6C471.6 62.133 470.2 65.133 470.2 68.6C470.2 72.067 471.333 75.133 473.6 77.8C475.867 80.333 479.333 82.8 484 85.2C488.667 87.467 494.533 89.8 501.6 92.2C506.133 93.8 510.467 95.8 514.6 98.2C518.867 100.6 522.667 103.533 526 107C529.467 110.333 532.133 114.333 534 119C536 123.533 537 128.8 537 134.8C537 141.6 535.667 147.667 533 153C530.333 158.333 526.667 162.867 522 166.6C517.333 170.2 512.067 172.933 506.2 174.8C500.467 176.8 494.4 177.8 488 177.8C479.467 177.8 471.467 176.2 464 173C456.667 169.667 450.267 165.2 444.8 159.6C439.333 154 435.067 147.933 432 141.4L452.4 127ZM579.717 142.2L583.117 119.6H650.317L653.717 142.2H579.717ZM616.317 79.4L595.317 127.6L595.917 134L577.517 174H545.317L616.317 25.8L687.317 174H654.917L636.917 135.2L637.317 128L616.317 79.4ZM810.983 121L840.983 34H874.583L815.583 181.8L771.583 89.8L727.383 181.8L668.583 34H702.183L732.583 121L771.583 27L810.983 121ZM890.264 142.2L893.664 119.6H960.864L964.264 142.2H890.264ZM926.864 79.4L905.864 127.6L906.464 134L888.064 174H855.864L926.864 25.8L997.864 174H965.464L947.464 135.2L947.864 128L926.864 79.4ZM1112.65 34H1140.25V181L1040.65 87.2V174H1013.05V27L1112.65 120.8V34ZM1238.67 122V99.2H1307.67C1308.07 109.867 1306.8 119.933 1303.87 129.4C1301.07 138.867 1296.6 147.267 1290.47 154.6C1284.47 161.8 1277 167.467 1268.07 171.6C1259.14 175.733 1248.94 177.8 1237.47 177.8C1226.67 177.8 1216.67 176 1207.47 172.4C1198.4 168.8 1190.47 163.733 1183.67 157.2C1177 150.667 1171.8 142.867 1168.07 133.8C1164.47 124.733 1162.67 114.8 1162.67 104C1162.67 93.2 1164.54 83.333 1168.27 74.4C1172.14 65.333 1177.47 57.6 1184.27 51.2C1191.07 44.8 1199.07 39.8667 1208.27 36.4C1217.47 32.9333 1227.47 31.2 1238.27 31.2C1247.87 31.2 1256.47 32.5333 1264.07 35.2C1271.8 37.8667 1278.6 41.6 1284.47 46.4C1290.47 51.0667 1295.6 56.6667 1299.87 63.2L1275.47 77.4C1272 71.267 1267.14 66.333 1260.87 62.6C1254.74 58.7333 1247.2 56.8 1238.27 56.8C1229.87 56.8 1222.2 58.7333 1215.27 62.6C1208.34 66.333 1202.8 71.733 1198.67 78.8C1194.67 85.867 1192.67 94.267 1192.67 104C1192.67 113.6 1194.67 122.067 1198.67 129.4C1202.67 136.6 1208.07 142.2 1214.87 146.2C1221.8 150.2 1229.6 152.2 1238.27 152.2C1244 152.2 1249.14 151.467 1253.67 150C1258.2 148.4 1262.07 146.2 1265.27 143.4C1268.6 140.6 1271.4 137.4 1273.67 133.8C1275.94 130.2 1277.67 126.267 1278.87 122H1238.67Z" fill="#53B688"/>
<path d="M432.6 216.9V204H484.6V216.9H465.7V274H451.4V216.9H432.6ZM509.425 243.2V230.3H560.825V243.2H509.425ZM551.725 204H566.025V274H551.725V204ZM504.725 204H519.025V274H504.725V204ZM602.792 258.1L604.492 246.8H638.092L639.792 258.1H602.792ZM621.092 226.7L610.592 250.8L610.892 254L601.692 274H585.592L621.092 199.9L656.592 274H640.392L631.392 254.6L631.592 251L621.092 226.7ZM676.186 204H690.686V274H676.186V204ZM775.156 234.7L770.656 274H755.756L766.156 200.5L795.456 245.7L824.756 200.5L835.156 274H820.256L815.756 234.7L795.456 267.5L775.156 234.7ZM868.077 258.1L869.777 246.8H903.377L905.077 258.1H868.077ZM886.377 226.7L875.877 250.8L876.177 254L866.977 274H850.877L886.377 199.9L921.877 274H905.677L896.677 254.6L896.877 251L886.377 226.7ZM947.571 250.5C949.038 253.1 950.638 255.367 952.371 257.3C954.171 259.233 956.138 260.733 958.271 261.8C960.404 262.867 962.704 263.4 965.171 263.4C968.038 263.4 970.371 262.667 972.171 261.2C973.971 259.733 974.871 257.733 974.871 255.2C974.871 253 974.304 251.233 973.171 249.9C972.104 248.567 970.471 247.4 968.271 246.4C966.138 245.333 963.504 244.2 960.371 243C958.704 242.4 956.771 241.6 954.571 240.6C952.438 239.533 950.404 238.2 948.471 236.6C946.538 234.933 944.938 232.933 943.671 230.6C942.404 228.2 941.771 225.333 941.771 222C941.771 218 942.771 214.567 944.771 211.7C946.838 208.767 949.604 206.533 953.071 205C956.604 203.4 960.538 202.6 964.871 202.6C969.338 202.6 973.171 203.367 976.371 204.9C979.638 206.367 982.338 208.267 984.471 210.6C986.671 212.867 988.371 215.233 989.571 217.7L978.371 223.9C977.438 222.233 976.304 220.733 974.971 219.4C973.704 218 972.238 216.9 970.571 216.1C968.904 215.233 967.004 214.8 964.871 214.8C962.071 214.8 959.971 215.467 958.571 216.8C957.171 218.067 956.471 219.567 956.471 221.3C956.471 223.033 957.038 224.567 958.171 225.9C959.304 227.167 961.038 228.4 963.371 229.6C965.704 230.733 968.638 231.9 972.171 233.1C974.438 233.9 976.604 234.9 978.671 236.1C980.804 237.3 982.704 238.767 984.371 240.5C986.104 242.167 987.438 244.167 988.371 246.5C989.371 248.767 989.871 251.4 989.871 254.4C989.871 257.8 989.204 260.833 987.871 263.5C986.538 266.167 984.704 268.433 982.371 270.3C980.038 272.1 977.404 273.467 974.471 274.4C971.604 275.4 968.571 275.9 965.371 275.9C961.104 275.9 957.104 275.1 953.371 273.5C949.704 271.833 946.504 269.6 943.771 266.8C941.038 264 938.904 260.967 937.371 257.7L947.571 250.5ZM1019.63 250.5C1021.1 253.1 1022.7 255.367 1024.43 257.3C1026.23 259.233 1028.2 260.733 1030.33 261.8C1032.46 262.867 1034.76 263.4 1037.23 263.4C1040.1 263.4 1042.43 262.667 1044.23 261.2C1046.03 259.733 1046.93 257.733 1046.93 255.2C1046.93 253 1046.36 251.233 1045.23 249.9C1044.16 248.567 1042.53 247.4 1040.33 246.4C1038.2 245.333 1035.56 244.2 1032.43 243C1030.76 242.4 1028.83 241.6 1026.63 240.6C1024.5 239.533 1022.46 238.2 1020.53 236.6C1018.6 234.933 1017 232.933 1015.73 230.6C1014.46 228.2 1013.83 225.333 1013.83 222C1013.83 218 1014.83 214.567 1016.83 211.7C1018.9 208.767 1021.66 206.533 1025.13 205C1028.66 203.4 1032.6 202.6 1036.93 202.6C1041.4 202.6 1045.23 203.367 1048.43 204.9C1051.7 206.367 1054.4 208.267 1056.53 210.6C1058.73 212.867 1060.43 215.233 1061.63 217.7L1050.43 223.9C1049.5 222.233 1048.36 220.733 1047.03 219.4C1045.76 218 1044.3 216.9 1042.63 216.1C1040.96 215.233 1039.06 214.8 1036.93 214.8C1034.13 214.8 1032.03 215.467 1030.63 216.8C1029.23 218.067 1028.53 219.567 1028.53 221.3C1028.53 223.033 1029.1 224.567 1030.23 225.9C1031.36 227.167 1033.1 228.4 1035.43 229.6C1037.76 230.733 1040.7 231.9 1044.23 233.1C1046.5 233.9 1048.66 234.9 1050.73 236.1C1052.86 237.3 1054.76 238.767 1056.43 240.5C1058.16 242.167 1059.5 244.167 1060.43 246.5C1061.43 248.767 1061.93 251.4 1061.93 254.4C1061.93 257.8 1061.26 260.833 1059.93 263.5C1058.6 266.167 1056.76 268.433 1054.43 270.3C1052.1 272.1 1049.46 273.467 1046.53 274.4C1043.66 275.4 1040.63 275.9 1037.43 275.9C1033.16 275.9 1029.16 275.1 1025.43 273.5C1021.76 271.833 1018.56 269.6 1015.83 266.8C1013.1 264 1010.96 260.967 1009.43 257.7L1019.63 250.5ZM1095.29 258.1L1096.99 246.8H1130.59L1132.29 258.1H1095.29ZM1113.59 226.7L1103.09 250.8L1103.39 254L1094.19 274H1078.09L1113.59 199.9L1149.09 274H1132.89L1123.89 254.6L1124.09 251L1113.59 226.7ZM1199.65 248V236.6H1234.15C1234.35 241.933 1233.72 246.967 1232.25 251.7C1230.85 256.433 1228.62 260.633 1225.55 264.3C1222.55 267.9 1218.82 270.733 1214.35 272.8C1209.89 274.867 1204.79 275.9 1199.05 275.9C1193.65 275.9 1188.65 275 1184.05 273.2C1179.52 271.4 1175.55 268.867 1172.15 265.6C1168.82 262.333 1166.22 258.433 1164.35 253.9C1162.55 249.367 1161.65 244.4 1161.65 239C1161.65 233.6 1162.59 228.667 1164.45 224.2C1166.39 219.667 1169.05 215.8 1172.45 212.6C1175.85 209.4 1179.85 206.933 1184.45 205.2C1189.05 203.467 1194.05 202.6 1199.45 202.6C1204.25 202.6 1208.55 203.267 1212.35 204.6C1216.22 205.933 1219.62 207.8 1222.55 210.2C1225.55 212.533 1228.12 215.333 1230.25 218.6L1218.05 225.7C1216.32 222.633 1213.89 220.167 1210.75 218.3C1207.69 216.367 1203.92 215.4 1199.45 215.4C1195.25 215.4 1191.42 216.367 1187.95 218.3C1184.49 220.167 1181.72 222.867 1179.65 226.4C1177.65 229.933 1176.65 234.133 1176.65 239C1176.65 243.8 1177.65 248.033 1179.65 251.7C1181.65 255.3 1184.35 258.1 1187.75 260.1C1191.22 262.1 1195.12 263.1 1199.45 263.1C1202.32 263.1 1204.89 262.733 1207.15 262C1209.42 261.2 1211.35 260.1 1212.95 258.7C1214.62 257.3 1216.02 255.7 1217.15 253.9C1218.29 252.1 1219.15 250.133 1219.75 248H1199.65ZM1267.03 274V261.9H1302.33V274H1267.03ZM1267.03 216.1V204H1302.33V216.1H1267.03ZM1267.03 242.8V230.9H1300.33V242.8H1267.03ZM1257.83 204H1271.63V274H1257.83V204Z" fill="#53B688"/>
</svg>
