<svg width="1316" height="352" viewBox="0 0 1316 352" fill="none" xmlns="http://www.w3.org/2000/svg">
<path d="M91.8582 139.02C68.5367 164.251 54.7342 168.06 54.7342 168.06C54.7342 168.06 67.5848 176.153 89.0025 170.916C86.6228 175.201 84.719 179.962 82.8152 184.722C81.8633 187.103 80.9114 189.483 79.9595 191.387C44.7392 190.911 15.2304 172.82 0 161.395C25.7013 172.82 62.8253 137.591 92.3342 114.264C156.587 64.753 203.706 103.315 203.706 103.315C179.909 88.5564 134.218 92.3649 91.8582 139.02Z" fill="white"/>
<path d="M132.314 76.6559C106.137 80.4644 96.1417 76.1798 96.1417 76.1798C96.1417 76.1798 99.9493 87.1294 115.18 94.2704C111.848 95.6986 108.516 97.6029 104.709 99.5072C103.281 100.459 101.377 101.411 99.9493 102.364C79.0075 85.2251 69.9645 60.4696 66.6328 46.1875C76.6277 65.2302 115.656 61.8978 144.213 62.3738C206.086 63.326 216.081 109.029 216.081 109.029C209.418 89.0337 179.909 69.5148 132.314 76.6559Z" fill="white"/>
<path d="M88.0507 186.628C72.3443 227.094 56.638 284.223 24.2734 288.031C46.6431 290.412 87.5747 290.412 123.271 268.989C124.223 258.515 124.699 247.089 125.175 236.14C104.709 261.847 82.3393 261.848 82.3393 261.848C82.3393 261.848 93.7621 249.946 101.853 211.384C116.608 139.974 159.443 109.029 191.808 109.981C192.284 109.981 122.319 99.5079 88.0507 186.628Z" fill="white"/>
<path d="M132.314 214.716C129.934 258.039 132.79 317.071 103.281 330.877C127.555 325.64 171.818 310.882 198.947 272.321C233.215 223.286 192.284 167.11 199.899 126.168C193.236 139.022 187.048 161.397 188.952 199.482C192.284 274.701 149.924 288.031 149.924 288.031C149.924 288.031 157.064 273.273 152.78 233.759C144.213 161.397 175.626 118.551 206.562 109.029C207.038 109.505 137.55 121.407 132.314 214.716Z" fill="white"/>
<path d="M333.641 231.85C356.963 206.618 370.765 202.81 370.765 202.81C370.765 202.81 357.914 194.717 336.497 199.953C338.877 195.669 340.78 190.908 342.684 186.147C343.636 183.767 344.588 181.387 345.54 179.482C380.284 179.958 409.317 197.573 425.023 208.999C399.322 198.525 362.674 233.278 333.165 256.129C268.912 305.641 221.793 267.079 221.793 267.079C245.59 282.313 291.282 278.505 333.641 231.85Z" fill="white"/>
<path d="M293.185 294.218C319.362 290.41 329.357 294.694 329.357 294.694C329.357 294.694 325.55 283.745 310.319 276.604C313.651 275.176 316.983 273.271 320.79 271.367C322.218 270.415 324.122 269.463 325.55 268.511C346.491 285.649 355.534 310.405 358.866 324.687C348.871 305.644 309.843 308.976 281.286 308.5C219.413 307.548 209.418 261.846 209.418 261.846C216.081 281.841 245.114 301.359 293.185 294.218Z" fill="white"/>
<path d="M337.447 184.249C353.153 143.783 368.86 86.6546 401.224 82.8461C378.854 80.4657 337.923 80.4657 302.227 101.889C301.275 112.362 300.799 123.788 300.323 134.738C320.789 109.03 343.158 109.03 343.158 109.03C343.158 109.03 331.735 120.932 323.644 159.493C308.89 230.903 266.054 261.848 233.69 260.896C233.214 260.896 303.179 271.369 337.447 184.249Z" fill="white"/>
<path d="M293.185 156.161C295.565 112.838 292.709 53.806 322.218 40C297.945 45.2368 253.681 59.9949 226.552 98.5564C192.284 147.591 233.215 203.768 225.6 244.709C232.264 231.856 238.451 209.48 236.547 171.395C233.215 96.1761 275.575 82.8462 275.575 82.8462C275.575 82.8462 268.436 97.6043 272.719 137.118C281.286 209.48 249.874 252.326 218.937 261.848C218.461 261.372 287.95 249.47 293.185 156.161Z" fill="white"/>
<path d="M452.4 167C455.333 172.2 458.533 176.733 462 180.6C465.6 184.467 469.533 187.467 473.8 189.6C478.067 191.733 482.667 192.8 487.6 192.8C493.333 192.8 498 191.333 501.6 188.4C505.2 185.467 507 181.467 507 176.4C507 172 505.867 168.467 503.6 165.8C501.467 163.133 498.2 160.8 493.8 158.8C489.533 156.667 484.267 154.4 478 152C474.667 150.8 470.8 149.2 466.4 147.2C462.133 145.067 458.067 142.4 454.2 139.2C450.333 135.867 447.133 131.867 444.6 127.2C442.067 122.4 440.8 116.667 440.8 110C440.8 102 442.8 95.1333 446.8 89.4C450.933 83.5333 456.467 79.0667 463.4 76C470.467 72.8 478.333 71.2 487 71.2C495.933 71.2 503.6 72.7333 510 75.8C516.533 78.7333 521.933 82.5333 526.2 87.2C530.6 91.7333 534 96.4667 536.4 101.4L514 113.8C512.133 110.467 509.867 107.467 507.2 104.8C504.667 102 501.733 99.8 498.4 98.2C495.067 96.4667 491.267 95.6 487 95.6C481.4 95.6 477.2 96.9333 474.4 99.6C471.6 102.133 470.2 105.133 470.2 108.6C470.2 112.067 471.333 115.133 473.6 117.8C475.867 120.333 479.333 122.8 484 125.2C488.667 127.467 494.533 129.8 501.6 132.2C506.133 133.8 510.467 135.8 514.6 138.2C518.867 140.6 522.667 143.533 526 147C529.467 150.333 532.133 154.333 534 159C536 163.533 537 168.8 537 174.8C537 181.6 535.667 187.667 533 193C530.333 198.333 526.667 202.867 522 206.6C517.333 210.2 512.067 212.933 506.2 214.8C500.467 216.8 494.4 217.8 488 217.8C479.467 217.8 471.467 216.2 464 213C456.667 209.667 450.267 205.2 444.8 199.6C439.333 194 435.067 187.933 432 181.4L452.4 167ZM579.717 182.2L583.117 159.6H650.317L653.717 182.2H579.717ZM616.317 119.4L595.317 167.6L595.917 174L577.517 214H545.317L616.317 65.8L687.317 214H654.917L636.917 175.2L637.317 168L616.317 119.4ZM810.983 161L840.983 74H874.583L815.583 221.8L771.583 129.8L727.383 221.8L668.583 74H702.183L732.583 161L771.583 67L810.983 161ZM890.264 182.2L893.664 159.6H960.864L964.264 182.2H890.264ZM926.864 119.4L905.864 167.6L906.464 174L888.064 214H855.864L926.864 65.8L997.864 214H965.464L947.464 175.2L947.864 168L926.864 119.4ZM1112.65 74H1140.25V221L1040.65 127.2V214H1013.05V67L1112.65 160.8V74ZM1238.67 162V139.2H1307.67C1308.07 149.867 1306.8 159.933 1303.87 169.4C1301.07 178.867 1296.6 187.267 1290.47 194.6C1284.47 201.8 1277 207.467 1268.07 211.6C1259.14 215.733 1248.94 217.8 1237.47 217.8C1226.67 217.8 1216.67 216 1207.47 212.4C1198.4 208.8 1190.47 203.733 1183.67 197.2C1177 190.667 1171.8 182.867 1168.07 173.8C1164.47 164.733 1162.67 154.8 1162.67 144C1162.67 133.2 1164.54 123.333 1168.27 114.4C1172.14 105.333 1177.47 97.6 1184.27 91.2C1191.07 84.8 1199.07 79.8667 1208.27 76.4C1217.47 72.9333 1227.47 71.2 1238.27 71.2C1247.87 71.2 1256.47 72.5333 1264.07 75.2C1271.8 77.8667 1278.6 81.6 1284.47 86.4C1290.47 91.0667 1295.6 96.6667 1299.87 103.2L1275.47 117.4C1272 111.267 1267.14 106.333 1260.87 102.6C1254.74 98.7333 1247.2 96.8 1238.27 96.8C1229.87 96.8 1222.2 98.7333 1215.27 102.6C1208.34 106.333 1202.8 111.733 1198.67 118.8C1194.67 125.867 1192.67 134.267 1192.67 144C1192.67 153.6 1194.67 162.067 1198.67 169.4C1202.67 176.6 1208.07 182.2 1214.87 186.2C1221.8 190.2 1229.6 192.2 1238.27 192.2C1244 192.2 1249.14 191.467 1253.67 190C1258.2 188.4 1262.07 186.2 1265.27 183.4C1268.6 180.6 1271.4 177.4 1273.67 173.8C1275.94 170.2 1277.67 166.267 1278.87 162H1238.67Z" fill="white"/>
<path d="M432.6 256.9V244H484.6V256.9H465.7V314H451.4V256.9H432.6ZM509.425 283.2V270.3H560.825V283.2H509.425ZM551.725 244H566.025V314H551.725V244ZM504.725 244H519.025V314H504.725V244ZM602.792 298.1L604.492 286.8H638.092L639.792 298.1H602.792ZM621.092 266.7L610.592 290.8L610.892 294L601.692 314H585.592L621.092 239.9L656.592 314H640.392L631.392 294.6L631.592 291L621.092 266.7ZM676.186 244H690.686V314H676.186V244ZM775.156 274.7L770.656 314H755.756L766.156 240.5L795.456 285.7L824.756 240.5L835.156 314H820.256L815.756 274.7L795.456 307.5L775.156 274.7ZM868.077 298.1L869.777 286.8H903.377L905.077 298.1H868.077ZM886.377 266.7L875.877 290.8L876.177 294L866.977 314H850.877L886.377 239.9L921.877 314H905.677L896.677 294.6L896.877 291L886.377 266.7ZM947.571 290.5C949.038 293.1 950.638 295.367 952.371 297.3C954.171 299.233 956.138 300.733 958.271 301.8C960.404 302.867 962.704 303.4 965.171 303.4C968.038 303.4 970.371 302.667 972.171 301.2C973.971 299.733 974.871 297.733 974.871 295.2C974.871 293 974.304 291.233 973.171 289.9C972.104 288.567 970.471 287.4 968.271 286.4C966.138 285.333 963.504 284.2 960.371 283C958.704 282.4 956.771 281.6 954.571 280.6C952.438 279.533 950.404 278.2 948.471 276.6C946.538 274.933 944.938 272.933 943.671 270.6C942.404 268.2 941.771 265.333 941.771 262C941.771 258 942.771 254.567 944.771 251.7C946.838 248.767 949.604 246.533 953.071 245C956.604 243.4 960.538 242.6 964.871 242.6C969.338 242.6 973.171 243.367 976.371 244.9C979.638 246.367 982.338 248.267 984.471 250.6C986.671 252.867 988.371 255.233 989.571 257.7L978.371 263.9C977.438 262.233 976.304 260.733 974.971 259.4C973.704 258 972.238 256.9 970.571 256.1C968.904 255.233 967.004 254.8 964.871 254.8C962.071 254.8 959.971 255.467 958.571 256.8C957.171 258.067 956.471 259.567 956.471 261.3C956.471 263.033 957.038 264.567 958.171 265.9C959.304 267.167 961.038 268.4 963.371 269.6C965.704 270.733 968.638 271.9 972.171 273.1C974.438 273.9 976.604 274.9 978.671 276.1C980.804 277.3 982.704 278.767 984.371 280.5C986.104 282.167 987.438 284.167 988.371 286.5C989.371 288.767 989.871 291.4 989.871 294.4C989.871 297.8 989.204 300.833 987.871 303.5C986.538 306.167 984.704 308.433 982.371 310.3C980.038 312.1 977.404 313.467 974.471 314.4C971.604 315.4 968.571 315.9 965.371 315.9C961.104 315.9 957.104 315.1 953.371 313.5C949.704 311.833 946.504 309.6 943.771 306.8C941.038 304 938.904 300.967 937.371 297.7L947.571 290.5ZM1019.63 290.5C1021.1 293.1 1022.7 295.367 1024.43 297.3C1026.23 299.233 1028.2 300.733 1030.33 301.8C1032.46 302.867 1034.76 303.4 1037.23 303.4C1040.1 303.4 1042.43 302.667 1044.23 301.2C1046.03 299.733 1046.93 297.733 1046.93 295.2C1046.93 293 1046.36 291.233 1045.23 289.9C1044.16 288.567 1042.53 287.4 1040.33 286.4C1038.2 285.333 1035.56 284.2 1032.43 283C1030.76 282.4 1028.83 281.6 1026.63 280.6C1024.5 279.533 1022.46 278.2 1020.53 276.6C1018.6 274.933 1017 272.933 1015.73 270.6C1014.46 268.2 1013.83 265.333 1013.83 262C1013.83 258 1014.83 254.567 1016.83 251.7C1018.9 248.767 1021.66 246.533 1025.13 245C1028.66 243.4 1032.6 242.6 1036.93 242.6C1041.4 242.6 1045.23 243.367 1048.43 244.9C1051.7 246.367 1054.4 248.267 1056.53 250.6C1058.73 252.867 1060.43 255.233 1061.63 257.7L1050.43 263.9C1049.5 262.233 1048.36 260.733 1047.03 259.4C1045.76 258 1044.3 256.9 1042.63 256.1C1040.96 255.233 1039.06 254.8 1036.93 254.8C1034.13 254.8 1032.03 255.467 1030.63 256.8C1029.23 258.067 1028.53 259.567 1028.53 261.3C1028.53 263.033 1029.1 264.567 1030.23 265.9C1031.36 267.167 1033.1 268.4 1035.43 269.6C1037.76 270.733 1040.7 271.9 1044.23 273.1C1046.5 273.9 1048.66 274.9 1050.73 276.1C1052.86 277.3 1054.76 278.767 1056.43 280.5C1058.16 282.167 1059.5 284.167 1060.43 286.5C1061.43 288.767 1061.93 291.4 1061.93 294.4C1061.93 297.8 1061.26 300.833 1059.93 303.5C1058.6 306.167 1056.76 308.433 1054.43 310.3C1052.1 312.1 1049.46 313.467 1046.53 314.4C1043.66 315.4 1040.63 315.9 1037.43 315.9C1033.16 315.9 1029.16 315.1 1025.43 313.5C1021.76 311.833 1018.56 309.6 1015.83 306.8C1013.1 304 1010.96 300.967 1009.43 297.7L1019.63 290.5ZM1095.29 298.1L1096.99 286.8H1130.59L1132.29 298.1H1095.29ZM1113.59 266.7L1103.09 290.8L1103.39 294L1094.19 314H1078.09L1113.59 239.9L1149.09 314H1132.89L1123.89 294.6L1124.09 291L1113.59 266.7ZM1199.65 288V276.6H1234.15C1234.35 281.933 1233.72 286.967 1232.25 291.7C1230.85 296.433 1228.62 300.633 1225.55 304.3C1222.55 307.9 1218.82 310.733 1214.35 312.8C1209.89 314.867 1204.79 315.9 1199.05 315.9C1193.65 315.9 1188.65 315 1184.05 313.2C1179.52 311.4 1175.55 308.867 1172.15 305.6C1168.82 302.333 1166.22 298.433 1164.35 293.9C1162.55 289.367 1161.65 284.4 1161.65 279C1161.65 273.6 1162.59 268.667 1164.45 264.2C1166.39 259.667 1169.05 255.8 1172.45 252.6C1175.85 249.4 1179.85 246.933 1184.45 245.2C1189.05 243.467 1194.05 242.6 1199.45 242.6C1204.25 242.6 1208.55 243.267 1212.35 244.6C1216.22 245.933 1219.62 247.8 1222.55 250.2C1225.55 252.533 1228.12 255.333 1230.25 258.6L1218.05 265.7C1216.32 262.633 1213.89 260.167 1210.75 258.3C1207.69 256.367 1203.92 255.4 1199.45 255.4C1195.25 255.4 1191.42 256.367 1187.95 258.3C1184.49 260.167 1181.72 262.867 1179.65 266.4C1177.65 269.933 1176.65 274.133 1176.65 279C1176.65 283.8 1177.65 288.033 1179.65 291.7C1181.65 295.3 1184.35 298.1 1187.75 300.1C1191.22 302.1 1195.12 303.1 1199.45 303.1C1202.32 303.1 1204.89 302.733 1207.15 302C1209.42 301.2 1211.35 300.1 1212.95 298.7C1214.62 297.3 1216.02 295.7 1217.15 293.9C1218.29 292.1 1219.15 290.133 1219.75 288H1199.65ZM1267.03 314V301.9H1302.33V314H1267.03ZM1267.03 256.1V244H1302.33V256.1H1267.03ZM1267.03 282.8V270.9H1300.33V282.8H1267.03ZM1257.83 244H1271.63V314H1257.83V244Z" fill="white"/>
</svg>
